<svg width="36" height="36" viewBox="0 0 36 36" fill="none" xmlns="http://www.w3.org/2000/svg">
<path d="M18 0.5C27.665 0.5 35.5 8.33502 35.5 18C35.5 27.665 27.665 35.5 18 35.5C8.33502 35.5 0.5 27.665 0.5 18C0.5 8.33502 8.33502 0.5 18 0.5Z" stroke="#CCCCCC"/>
<path d="M22.5 11.6543H20.3633C19.8127 11.6544 19.5894 11.7886 19.502 11.8994C19.4167 12.0186 19.3291 12.2823 19.3291 12.7871V14.625H22.291L22.2236 15.1855L21.8145 18.5625L21.7617 19.002H19.3291V27.5H15.125V19.002H12.5V14.625H15.125V12.4531C15.125 10.9583 15.5121 9.72667 16.3506 8.82812C17.1851 7.93392 18.2902 7.50008 19.6133 7.5C20.604 7.5 21.4297 7.55038 22.0801 7.65527L22.5 7.72266V11.6543Z" stroke="#CCCCCC"/>
</svg>
