<svg width="36" height="36" viewBox="0 0 36 36" fill="none" xmlns="http://www.w3.org/2000/svg">
<path d="M18 0.5C27.665 0.5 35.5 8.33502 35.5 18C35.5 27.665 27.665 35.5 18 35.5C8.33502 35.5 0.5 27.665 0.5 18C0.5 8.33502 8.33502 0.5 18 0.5Z" stroke="#CCCCCC"/>
<path d="M26.0381 12.4043C25.9582 12.6506 25.8563 12.8816 25.7354 13.0986C25.757 13.0895 25.7792 13.0816 25.8008 13.0723L27.3975 12.3809L26.4121 13.8145C25.9773 14.4469 25.4618 15.0005 24.8682 15.4756C24.8706 15.5347 24.875 15.5952 24.875 15.6562C24.875 17.2389 24.4892 18.7637 23.7266 20.2256C22.9386 21.7796 21.8288 23.0231 20.4004 23.9473C18.8327 24.985 17.0378 25.5 15.0312 25.5C13.1033 25.5 11.3322 24.983 9.72949 23.9512L10.0449 23.0332C10.2557 23.0524 10.5009 23.0625 10.7812 23.0625C11.7756 23.0625 12.6934 22.8462 13.542 22.4141C13.2255 22.2922 12.9261 22.1266 12.6475 21.9111C12.0181 21.4242 11.5771 20.8042 11.3369 20.0596L11.1025 19.333L11.3516 19.3574C11.2371 19.2477 11.1258 19.1319 11.0215 19.0059C10.4487 18.3137 10.1562 17.5144 10.1562 16.625V15.6865L10.5557 15.9219C10.2896 15.4015 10.1562 14.837 10.1562 14.2344C10.1562 13.5654 10.3402 12.9305 10.6963 12.3369L11.0674 11.7178L11.5166 12.2822C12.2842 13.2467 13.2231 14.0137 14.3379 14.5859C15.2778 15.0684 16.2693 15.3662 17.3154 15.4834C17.3127 15.4161 17.3125 15.3486 17.3125 15.2812C17.3125 14.6103 17.481 13.9779 17.8154 13.3926C18.1499 12.8072 18.6086 12.3425 19.1855 12.0059C19.7626 11.6692 20.3914 11.5 21.0625 11.5C21.6088 11.5 22.1241 11.6072 22.6006 11.8271C22.9739 11.9995 23.3126 12.2205 23.6172 12.4873C24.221 12.3459 24.7853 12.1229 25.3115 11.8174L26.4414 11.1621L26.0381 12.4043Z" stroke="#CCCCCC"/>
</svg>
