<svg width="36" height="36" viewBox="0 0 36 36" fill="none" xmlns="http://www.w3.org/2000/svg">
<path d="M18 0.5C27.665 0.5 35.5 8.33502 35.5 18C35.5 27.665 27.665 35.5 18 35.5C8.33502 35.5 0.5 27.665 0.5 18C0.5 8.33502 8.33502 0.5 18 0.5Z" stroke="#CCCCCC"/>
<path d="M10.79 12.5C11.1216 12.5001 11.463 12.5803 11.7197 12.8281C11.9422 13.0431 12.0825 13.3657 12.1826 13.7061L12.4375 14.4346C12.6158 14.9172 12.8115 15.3937 13.0244 15.8643L13.3564 16.5654L13.3584 16.5693L13.668 17.1787C13.9756 17.7549 14.2789 18.2343 14.5762 18.6201C14.7687 18.87 14.9262 19.04 15.0488 19.1455C15.0528 19.0836 15.0566 19.0103 15.0566 18.9248V15.6807C15.0352 15.3365 14.9653 15.0544 14.8574 14.8252L14.8457 14.7998C14.7979 14.6814 14.7089 14.528 14.5615 14.3379C14.3839 14.1089 14.209 13.8193 14.209 13.5059C14.2091 13.222 14.3261 12.9742 14.5254 12.7861C14.7208 12.6018 14.9662 12.5 15.2393 12.5H18.5234C18.7894 12.5001 19.0862 12.5717 19.2969 12.8027L19.3818 12.9121L19.4395 13.0117C19.5593 13.2521 19.5879 13.548 19.5879 13.8252V18.1748C19.5879 18.1974 19.589 18.2184 19.5898 18.2373C19.6674 18.1814 19.8075 18.0545 20.0146 17.8125C20.4372 17.3164 20.8676 16.6931 21.3037 15.9375C21.5995 15.4053 21.8856 14.8225 22.1611 14.1885L22.167 14.1748L22.5195 13.4248C22.628 13.1585 22.7897 12.9228 23.0234 12.7539C23.2694 12.5763 23.5567 12.5 23.8555 12.5H25.9385C26.2791 12.5 26.6698 12.5805 26.917 12.9014C27.1634 13.2212 27.1433 13.6192 27.0586 13.9492L27.0576 13.9482C26.9615 14.4147 26.6425 15.0961 26.1621 15.9463C25.8064 16.5759 25.3805 17.3045 24.8848 18.1318L24.8799 18.1396L24.874 18.1484C24.6622 18.4734 24.4995 18.7213 24.3867 18.8916C24.3305 18.9765 24.2857 19.0437 24.2529 19.0918C24.2367 19.1156 24.2222 19.1372 24.21 19.1543C24.2089 19.1557 24.2046 19.159 24.2002 19.165C24.1438 19.2559 24.1088 19.3256 24.0889 19.375C24.0837 19.3878 24.0807 19.3984 24.0781 19.4062L24.1104 19.4629C24.1251 19.4856 24.1447 19.5125 24.1699 19.5439L24.4707 19.8994C25.3238 20.8306 25.9986 21.6261 26.4893 22.2822C26.9093 22.844 27.2212 23.3377 27.3818 23.7471L27.4414 23.918L27.4453 23.9326L27.4492 23.9482C27.5373 24.3228 27.5295 24.7359 27.2656 25.0674C27.0102 25.388 26.6331 25.4999 26.2568 25.5H24.1729C23.7903 25.5 23.444 25.3671 23.1484 25.123V25.1221C23.0424 25.0418 22.925 24.9294 22.8066 24.8037C22.6707 24.6593 22.509 24.4746 22.3232 24.252C21.9625 23.8195 21.6457 23.4585 21.3721 23.168H21.3711C20.9154 22.709 20.5349 22.3798 20.2266 22.1689C19.9007 21.9461 19.7208 21.9005 19.6533 21.9004C19.644 21.9004 19.635 21.9021 19.627 21.9023C19.625 21.9291 19.623 21.9614 19.623 22V22.0332L19.6191 22.0664C19.6009 22.2017 19.5879 22.5536 19.5879 23.1621V24.1377C19.6096 24.5129 19.5224 24.9131 19.1787 25.1738L19.1719 25.1787L19.165 25.1826C18.9718 25.3194 18.729 25.3936 18.4863 25.4365C18.2357 25.4809 17.939 25.5 17.6045 25.5C16.388 25.4999 15.1801 25.1139 13.9873 24.375C12.7853 23.6304 11.7461 22.5739 10.8652 21.2227V21.2217C10.0535 20.0539 9.36998 18.871 8.81738 17.6719V17.6709C8.38796 16.7585 8.03934 15.9042 7.77344 15.1084L7.76758 15.0928L7.65332 14.6357C7.55616 14.2193 7.50003 13.8799 7.5 13.6377C7.5 13.3342 7.58668 13.0184 7.8418 12.7881C8.0871 12.5668 8.40564 12.5 8.70605 12.5H10.79Z" stroke="#CCCCCC"/>
</svg>
